<svg width="23" height="25" viewBox="0 0 23 25" fill="none" xmlns="http://www.w3.org/2000/svg">
<path d="M0.374006 5.33679C0.674744 3.82681 1.23403 2.2902 2.38869 1.27408C3.54364 0.257793 5.41698 -0.0554466 6.61202 0.908991C7.73806 1.81789 7.91029 3.4502 7.91605 4.90025C7.92627 7.44843 7.6932 9.99789 7.22084 12.5024C9.3293 9.84345 11.4456 7.17576 13.8845 4.81783C15.4951 3.2604 17.3879 1.78069 19.6147 1.5724C20.0966 1.52734 20.5974 1.54669 21.0416 1.73837C22.2124 2.24294 22.598 3.72018 22.597 4.99867C22.5927 10.1285 18.8826 14.4679 15.0228 17.8409C12.5353 20.0145 9.89162 22.0509 7.10081 23.8193C4.99044 25.1562 3.77149 25.5034 2.92883 22.8704C1.21157 17.5057 -0.747821 10.974 0.374006 5.33679" fill="url(#paint0_linear_10_151)"/>
<defs>
<linearGradient id="paint0_linear_10_151" x1="6.30749" y1="25.3179" x2="13.1337" y2="-0.384684" gradientUnits="userSpaceOnUse">
<stop stop-color="#EF834D"/>
<stop offset="1" stop-color="#E34D60"/>
</linearGradient>
</defs>
</svg>
