<svg width="1366" height="1024" viewBox="0 0 1366 1024" fill="none" xmlns="http://www.w3.org/2000/svg">
<g clip-path="url(#clip0_301_2)">
<rect width="1024" height="1366" transform="translate(0 1024) rotate(-90)" fill="black"/>
<path d="M1166.98 830.364C1144.48 839.568 1121.29 847.266 1098.12 854.889C1094.87 843.772 1091.2 832.662 1087.52 821.526C1090.83 821.019 1093.44 820.375 1094.34 819.737C1133.55 791.85 1172.95 764.03 1214.63 739.996C1210.29 744.528 1205.43 748.555 1202.42 751.425C1191.5 761.895 1179.75 771.469 1167.94 780.909C1144.34 799.779 1120.47 818.338 1101.36 841.977C1098.42 845.613 1109.89 846.161 1110.85 846.196C1117.16 846.428 1124.58 845.836 1130.25 842.81C1157.86 828.058 1186.12 814.723 1214.98 802.741C1200.81 814.482 1184.17 823.333 1166.98 830.364V830.364ZM1088.59 650.483C1090.2 648.515 1092.23 646.821 1094.08 645.077C1094.42 645.347 1094.75 645.648 1095.1 645.918C1096.8 649.475 1101.36 652.779 1103.51 656.436C1105.37 659.668 1106.92 663.151 1108.24 666.638C1110.01 671.316 1111.42 676.15 1112.59 681.089C1110.63 681.292 1109.17 681.513 1108.79 681.591C1095.18 684.448 1081.92 688.346 1069.02 693.241C1069.12 692.744 1069.19 692.268 1069.31 691.745C1072.59 676.745 1078.82 662.438 1088.59 650.483ZM1125.01 766.589C1131.07 767.078 1140.18 765.403 1145.59 763.589C1135.43 770.174 1125.37 776.915 1115.37 783.78C1118.58 778.051 1121.79 772.333 1125.01 766.589ZM1075.18 772.333C1082.57 768.91 1089.96 765.482 1097.35 762.053C1091.22 772.987 1085.08 783.918 1078.95 794.847C1076.77 787.677 1074.73 780.485 1072.94 773.268C1073.7 772.983 1074.45 772.674 1075.18 772.333V772.333ZM1109.62 741.696C1103.67 744.45 1097.71 747.205 1091.75 749.99C1097.41 742.019 1103.08 734.05 1108.74 726.082C1111.56 722.108 1114.38 718.209 1117.08 714.252C1117.62 722.849 1117.83 731.51 1118.04 740.024C1113.87 740.606 1110.49 741.303 1109.62 741.696ZM1066.72 708.416C1067.45 708.106 1068.15 707.816 1068.84 707.45C1078.37 702.567 1088.12 698.439 1098.12 695.008C1092.61 707.733 1083.73 718.836 1075.69 730.151C1072.87 734.121 1070.02 738.119 1067.18 742.119C1065.93 730.973 1065.64 719.738 1066.72 708.416ZM1189.96 726.456C1203.29 715.625 1217.1 703.138 1232.57 695.381C1242.36 690.477 1248.06 702.586 1250.84 714.34C1243.7 712 1228.84 715.833 1225.12 717.677C1200 730.115 1175.88 744.221 1152.31 759.274C1164.53 747.959 1177.04 736.968 1189.96 726.456V726.456ZM1240.51 773.264C1238.66 776.389 1236.66 779.364 1234.53 782.248C1209.04 791.463 1183.97 801.711 1159.32 812.955C1172.84 800.731 1187.3 789.454 1201.55 778.008C1213.32 768.553 1225 758.872 1235.75 748.247C1240.44 743.628 1248.94 736.662 1252.95 729.113C1252.96 729.447 1252.97 729.776 1252.96 730.099C1253.02 745.365 1248.23 760.2 1240.51 773.264V773.264ZM1282.64 743.312C1285.9 727.681 1285.59 705.044 1272.87 693.23C1260.05 681.296 1236.77 683.132 1221.15 687.192C1202.89 691.965 1188.18 704.358 1173.54 715.698C1165.15 722.206 1156.94 728.907 1148.85 735.739C1148.19 722.945 1147.47 710.129 1146.31 697.36C1144.79 680.755 1141.66 663.613 1132.2 649.482C1122.18 634.545 1106.62 631.048 1089.53 633.362C1072.8 635.629 1061.41 644.795 1052.4 658.773C1011.04 722.867 1050.51 798.396 1068.78 864.63C1068.42 864.756 1068.05 864.877 1067.69 864.999C1061.81 866.993 1063.42 869.494 1068.19 870.977C1068.96 871.212 1069.77 871.392 1070.62 871.53C1071.32 874.287 1071.99 877.037 1072.6 879.759C1074.14 886.697 1105.02 882.105 1103.9 877.101C1103.04 873.237 1102.09 869.373 1101.08 865.514C1139.14 853.001 1178.7 841.709 1214.17 823.24C1246.17 806.579 1275.02 779.931 1282.64 743.312" fill="url(#paint0_linear_301_2)"/>
<path d="M192.463 477.689C162.044 467.377 133.057 451.587 107.815 431.718C96.7664 423.035 85.5845 412.209 82.5122 397.932C81.2061 391.866 81.4903 385.054 83.8092 379.235C84.416 377.702 85.1514 376.033 86.153 374.702C91.2421 367.914 86.8478 373.89 87.3779 373.732C91.4564 372.582 96.983 374.116 100.931 375.289C117.35 380.092 131.535 392.362 143.657 403.977C156.646 416.449 167.733 430.613 176.966 446.039C179.075 449.58 195.91 439.814 195.714 436.116C194.925 421.366 195.477 406.638 197.636 392.023C199.583 378.852 201.784 363.245 208.825 351.675C209.456 350.638 210.147 349.623 210.871 348.653C211.171 348.675 211.496 348.698 211.879 348.72C213.972 350.389 216.512 351.201 218.457 353.389C222.249 357.652 224.938 363.471 227.047 368.726C231.764 380.498 233.266 393.264 232.628 405.871C231.243 433.319 220.717 458.146 209.928 482.914C204.047 481.385 198.222 479.642 192.463 477.689V477.689ZM354.201 545.952C340.174 521.032 316.583 502.897 288.853 495.831C272.736 491.724 256.027 490.912 239.596 488.727C234.184 488.007 228.804 487.094 223.46 486.018C234.615 460.022 247.074 434.424 250.604 406.052C253.176 385.415 251.513 359.14 237.151 342.608C223.485 326.866 199.317 345.27 191.209 358.441C184.079 370.034 181.48 384.739 179.321 397.978C178.678 401.924 178.155 405.871 177.742 409.818C173.235 404.36 168.448 399.105 163.346 394.143C151.471 382.596 137.623 370.71 121.909 364.801C95.1332 354.742 59.4423 374.522 63.2861 405.42C65.3073 421.681 77.8314 433.77 90.1592 443.31C104.145 454.136 119.193 463.755 134.833 472.001C157.066 483.724 180.023 491.625 203.93 496.774C195.703 516.082 188.315 535.651 185.94 556.692C185.601 559.703 204.126 553.083 204.739 547.63C206.641 530.803 211.73 514.968 217.884 499.46C224.8 500.635 231.793 501.605 238.878 502.387C258.714 504.579 278.485 507.408 296.2 517.187C312.803 526.355 326.236 540.273 335.505 556.744C337.535 560.35 356.328 549.734 354.201 545.952" fill="url(#paint1_linear_301_2)"/>
<path d="M1004.06 149.836C1006.32 138.508 1010.51 126.982 1019.17 119.359C1027.84 111.735 1041.89 109.386 1050.86 116.62C1059.3 123.438 1060.59 135.683 1060.64 146.561C1060.71 165.676 1058.97 184.801 1055.42 203.588C1071.24 183.642 1087.11 163.631 1105.41 145.943C1117.49 134.26 1131.69 123.159 1148.4 121.597C1152.01 121.259 1155.77 121.404 1159.1 122.842C1167.88 126.627 1170.77 137.709 1170.77 147.299C1170.73 185.78 1142.9 218.333 1113.95 243.635C1095.29 259.94 1075.46 275.217 1054.52 288.482C1038.69 298.511 1029.55 301.115 1023.23 281.364C1010.34 241.121 995.646 192.123 1004.06 149.836" fill="url(#paint2_linear_301_2)"/>
</g>
<defs>
<linearGradient id="paint0_linear_301_2" x1="1081.81" y1="885.317" x2="1190.81" y2="653.199" gradientUnits="userSpaceOnUse">
<stop stop-color="#94BFF5"/>
<stop offset="1" stop-color="#7481F7"/>
</linearGradient>
<linearGradient id="paint1_linear_301_2" x1="208.684" y1="557.48" x2="208.684" y2="336.549" gradientUnits="userSpaceOnUse">
<stop stop-color="#F5E37E"/>
<stop offset="1" stop-color="#F6B847"/>
</linearGradient>
<linearGradient id="paint2_linear_301_2" x1="1048.57" y1="299.724" x2="1099.78" y2="106.916" gradientUnits="userSpaceOnUse">
<stop stop-color="#EF834D"/>
<stop offset="1" stop-color="#E34D60"/>
</linearGradient>
<clipPath id="clip0_301_2">
<rect width="1024" height="1366" fill="white" transform="translate(0 1024) rotate(-90)"/>
</clipPath>
</defs>
</svg>
