<svg width="153" height="166" viewBox="0 0 153 166" fill="none" xmlns="http://www.w3.org/2000/svg">
<path d="M2.92304 34.3612C4.94856 24.1913 8.7154 13.842 16.4922 6.99827C24.271 0.153399 36.8883 -1.95632 44.937 4.53932C52.5211 10.6609 53.6811 21.6548 53.7199 31.4211C53.7887 48.5835 52.2189 65.7544 49.0375 82.6227C63.2383 64.7143 77.4919 46.747 93.9185 30.866C104.766 20.3764 117.514 10.4103 132.512 9.00747C135.757 8.70401 139.13 8.83433 142.123 10.1253C150.008 13.5236 152.605 23.4731 152.598 32.0839C152.57 66.6339 127.581 95.8609 101.585 118.579C84.8311 133.218 67.0256 146.934 48.2291 158.843C34.0154 167.848 25.8056 170.186 20.1302 152.453C8.56418 116.321 -4.63263 72.3287 2.92304 34.3612Z" fill="url(#paint0_linear_4_117)"/>
<defs>
<linearGradient id="paint0_linear_4_117" x1="42.886" y1="168.937" x2="88.8616" y2="-4.17378" gradientUnits="userSpaceOnUse">
<stop stop-color="#EF834D"/>
<stop offset="1" stop-color="#E34D60"/>
</linearGradient>
</defs>
</svg>
