<svg width="1374" height="1032" viewBox="0 0 1374 1032" fill="none" xmlns="http://www.w3.org/2000/svg">
<g clip-path="url(#clip0_301_2)" filter="url(#filter0_d_301_2)">
<rect width="1024" height="1366" transform="translate(4 1024) rotate(-90)" fill="black"/>
<path d="M1220.98 830.364C1198.48 839.568 1175.29 847.266 1152.12 854.889C1148.87 843.772 1145.2 832.662 1141.52 821.526C1144.83 821.019 1147.44 820.375 1148.34 819.737C1187.55 791.85 1226.95 764.03 1268.63 739.996C1264.29 744.528 1259.43 748.555 1256.42 751.425C1245.5 761.895 1233.75 771.469 1221.94 780.909C1198.34 799.779 1174.47 818.338 1155.36 841.977C1152.42 845.613 1163.89 846.161 1164.85 846.196C1171.16 846.428 1178.58 845.836 1184.25 842.81C1211.86 828.058 1240.12 814.723 1268.98 802.741C1254.81 814.482 1238.17 823.333 1220.98 830.364ZM1142.59 650.483C1144.2 648.515 1146.23 646.821 1148.08 645.077C1148.42 645.347 1148.75 645.648 1149.1 645.918C1150.8 649.475 1155.36 652.779 1157.51 656.436C1159.37 659.668 1160.92 663.151 1162.24 666.638C1164.01 671.316 1165.42 676.15 1166.59 681.089C1164.63 681.292 1163.17 681.513 1162.79 681.591C1149.18 684.448 1135.92 688.346 1123.02 693.241C1123.12 692.745 1123.19 692.268 1123.31 691.745C1126.59 676.745 1132.82 662.438 1142.59 650.483ZM1179.01 766.589C1185.07 767.078 1194.18 765.403 1199.59 763.589C1189.43 770.174 1179.37 776.915 1169.37 783.78C1172.58 778.051 1175.79 772.333 1179.01 766.589ZM1129.18 772.333C1136.57 768.91 1143.96 765.482 1151.35 762.053C1145.22 772.987 1139.08 783.918 1132.95 794.847C1130.77 787.677 1128.73 780.485 1126.94 773.268C1127.7 772.983 1128.45 772.674 1129.18 772.333ZM1163.62 741.696C1157.67 744.45 1151.71 747.205 1145.75 749.99C1151.41 742.019 1157.08 734.05 1162.74 726.082C1165.56 722.108 1168.38 718.209 1171.08 714.252C1171.62 722.849 1171.83 731.51 1172.04 740.024C1167.87 740.606 1164.49 741.303 1163.62 741.696ZM1120.72 708.416C1121.45 708.106 1122.15 707.817 1122.84 707.45C1132.37 702.567 1142.12 698.439 1152.12 695.008C1146.61 707.733 1137.73 718.836 1129.69 730.151C1126.87 734.121 1124.02 738.119 1121.18 742.119C1119.93 730.973 1119.64 719.737 1120.72 708.416ZM1243.96 726.456C1257.29 715.625 1271.1 703.138 1286.57 695.381C1296.36 690.477 1302.06 702.586 1304.84 714.34C1297.7 712 1282.84 715.833 1279.12 717.677C1254 730.115 1229.88 744.221 1206.31 759.274C1218.53 747.959 1231.04 736.968 1243.96 726.456ZM1294.51 773.264C1292.66 776.389 1290.66 779.364 1288.53 782.248C1263.04 791.463 1237.97 801.711 1213.32 812.955C1226.84 800.731 1241.3 789.454 1255.55 778.008C1267.32 768.553 1279 758.872 1289.75 748.247C1294.44 743.628 1302.94 736.662 1306.95 729.113C1306.96 729.447 1306.97 729.776 1306.96 730.099C1307.02 745.365 1302.23 760.2 1294.51 773.264ZM1336.64 743.312C1339.9 727.681 1339.59 705.044 1326.87 693.23C1314.05 681.296 1290.77 683.132 1275.15 687.192C1256.89 691.965 1242.18 704.358 1227.54 715.698C1219.15 722.206 1210.94 728.907 1202.85 735.739C1202.19 722.945 1201.47 710.129 1200.31 697.36C1198.79 680.755 1195.66 663.613 1186.2 649.482C1176.18 634.545 1160.62 631.048 1143.53 633.362C1126.8 635.629 1115.41 644.795 1106.4 658.773C1065.04 722.867 1104.51 798.396 1122.78 864.63C1122.42 864.756 1122.05 864.877 1121.69 864.999C1115.81 866.993 1117.42 869.493 1122.19 870.977C1122.96 871.212 1123.77 871.392 1124.62 871.53C1125.32 874.287 1125.99 877.037 1126.6 879.759C1128.14 886.697 1159.02 882.105 1157.9 877.101C1157.04 873.237 1156.09 869.373 1155.08 865.514C1193.14 853.001 1232.7 841.709 1268.17 823.24C1300.17 806.579 1329.02 779.931 1336.64 743.312Z" fill="url(#paint0_linear_301_2)"/>
<path d="M166.463 477.689C136.044 467.377 107.057 451.587 81.8152 431.718C70.7664 423.035 59.5845 412.209 56.5121 397.932C55.2061 391.866 55.4903 385.054 57.8092 379.235C58.416 377.702 59.1514 376.033 60.153 374.702C65.2421 367.914 60.8478 373.89 61.3779 373.732C65.4564 372.582 70.983 374.116 74.9306 375.289C91.3504 380.092 105.535 392.362 117.657 403.977C130.646 416.449 141.733 430.613 150.966 446.039C153.075 449.58 169.91 439.814 169.714 436.116C168.925 421.366 169.477 406.638 171.636 392.023C173.583 378.852 175.784 363.245 182.825 351.675C183.456 350.638 184.147 349.623 184.871 348.653C185.171 348.675 185.496 348.698 185.879 348.72C187.972 350.389 190.512 351.201 192.457 353.389C196.249 357.652 198.938 363.471 201.047 368.726C205.764 380.498 207.266 393.264 206.628 405.871C205.243 433.319 194.717 458.146 183.928 482.914C178.047 481.385 172.222 479.642 166.463 477.689ZM328.201 545.952C314.174 521.032 290.583 502.897 262.853 495.831C246.736 491.724 230.027 490.912 213.596 488.727C208.184 488.007 202.804 487.094 197.46 486.018C208.615 460.022 221.074 434.424 224.604 406.052C227.176 385.415 225.513 359.14 211.151 342.608C197.485 326.866 173.317 345.27 165.209 358.441C158.079 370.034 155.48 384.739 153.321 397.978C152.678 401.924 152.155 405.871 151.742 409.818C147.235 404.36 142.448 399.105 137.346 394.143C125.471 382.596 111.623 370.71 95.9094 364.801C69.1332 354.742 33.4423 374.522 37.2861 405.42C39.3073 421.681 51.8314 433.77 64.1592 443.31C78.1451 454.136 93.1934 463.755 108.833 472.001C131.066 483.724 154.023 491.625 177.93 496.774C169.703 516.082 162.315 535.651 159.94 556.692C159.601 559.703 178.126 553.083 178.739 547.63C180.641 530.803 185.73 514.968 191.884 499.46C198.8 500.635 205.793 501.605 212.878 502.387C232.714 504.579 252.485 507.408 270.2 517.187C286.803 526.355 300.236 540.273 309.505 556.744C311.535 560.35 330.328 549.734 328.201 545.952Z" fill="url(#paint1_linear_301_2)"/>
<path d="M1058.06 149.836C1060.32 138.508 1064.51 126.982 1073.17 119.359C1081.84 111.735 1095.89 109.386 1104.86 116.62C1113.3 123.438 1114.59 135.683 1114.64 146.561C1114.71 165.676 1112.97 184.801 1109.42 203.588C1125.24 183.642 1141.11 163.631 1159.41 145.943C1171.49 134.26 1185.69 123.159 1202.4 121.597C1206.01 121.259 1209.77 121.404 1213.1 122.842C1221.88 126.627 1224.77 137.709 1224.77 147.299C1224.73 185.78 1196.9 218.333 1167.95 243.635C1149.29 259.94 1129.46 275.217 1108.52 288.482C1092.69 298.511 1083.55 301.115 1077.23 281.364C1064.34 241.121 1049.65 192.123 1058.06 149.836" fill="url(#paint2_linear_301_2)"/>
</g>
<defs>
<filter id="filter0_d_301_2" x="0" y="0" width="1374" height="1032" filterUnits="userSpaceOnUse" color-interpolation-filters="sRGB">
<feFlood flood-opacity="0" result="BackgroundImageFix"/>
<feColorMatrix in="SourceAlpha" type="matrix" values="0 0 0 0 0 0 0 0 0 0 0 0 0 0 0 0 0 0 127 0" result="hardAlpha"/>
<feOffset dy="4"/>
<feGaussianBlur stdDeviation="2"/>
<feComposite in2="hardAlpha" operator="out"/>
<feColorMatrix type="matrix" values="0 0 0 0 0 0 0 0 0 0 0 0 0 0 0 0 0 0 0.25 0"/>
<feBlend mode="normal" in2="BackgroundImageFix" result="effect1_dropShadow_301_2"/>
<feBlend mode="normal" in="SourceGraphic" in2="effect1_dropShadow_301_2" result="shape"/>
</filter>
<linearGradient id="paint0_linear_301_2" x1="1135.81" y1="885.317" x2="1244.81" y2="653.199" gradientUnits="userSpaceOnUse">
<stop stop-color="#94BFF5"/>
<stop offset="1" stop-color="#7481F7"/>
</linearGradient>
<linearGradient id="paint1_linear_301_2" x1="182.684" y1="557.48" x2="182.684" y2="336.549" gradientUnits="userSpaceOnUse">
<stop stop-color="#F5E37E"/>
<stop offset="1" stop-color="#F6B847"/>
</linearGradient>
<linearGradient id="paint2_linear_301_2" x1="1102.57" y1="299.724" x2="1153.78" y2="106.916" gradientUnits="userSpaceOnUse">
<stop stop-color="#EF834D"/>
<stop offset="1" stop-color="#E34D60"/>
</linearGradient>
<clipPath id="clip0_301_2">
<rect width="1024" height="1366" fill="white" transform="translate(4 1024) rotate(-90)"/>
</clipPath>
</defs>
</svg>
