<svg width="262" height="199" viewBox="0 0 262 199" fill="none" xmlns="http://www.w3.org/2000/svg">
<path d="M116.238 126.721C88.926 117.463 62.9004 103.286 40.237 85.4465C30.3169 77.6505 20.2773 67.9307 17.5188 55.1127C16.3461 49.6656 16.6013 43.5502 18.6834 38.3258C19.2282 36.9488 19.8885 35.4504 20.7877 34.2557C25.3569 28.1606 21.4116 33.5268 21.8875 33.385C25.5493 32.3523 30.5113 33.7291 34.0556 34.7821C48.798 39.0953 61.5334 50.1111 72.4175 60.5396C84.0794 71.7376 94.0339 84.4543 102.324 98.305C104.217 101.484 119.332 92.7161 119.156 89.3952C118.447 76.152 118.943 62.929 120.882 49.8073C122.63 37.9816 124.606 23.969 130.927 13.581C131.494 12.6495 132.114 11.7382 132.764 10.8675C133.034 10.8877 133.325 10.9079 133.67 10.9282C135.549 12.4267 137.83 13.1557 139.576 15.1199C142.98 18.9471 145.394 24.1714 147.288 28.8896C151.523 39.4598 152.872 50.9211 152.299 62.2406C151.055 86.8843 141.605 109.175 131.918 131.413C126.638 130.04 121.408 128.475 116.238 126.721ZM261.452 188.011C248.859 165.637 227.678 149.354 202.78 143.01C188.309 139.323 173.307 138.594 158.555 136.631C153.696 135.985 148.866 135.165 144.068 134.199C154.083 110.86 165.269 87.8765 168.439 62.4026C170.747 43.8743 169.255 20.2836 156.359 5.44064C144.09 -8.69356 122.391 7.83012 115.112 19.6559C108.709 30.0641 106.376 43.2668 104.438 55.1533C103.861 58.697 103.391 62.2406 103.02 65.7843C98.9737 60.8839 94.6759 56.1658 90.0946 51.7109C79.4332 41.3431 66.9997 30.6715 52.8912 25.3661C28.8505 16.3348 -3.19427 34.0938 0.256895 61.8356C2.07159 76.4356 13.3162 87.2893 24.3847 95.8549C36.9417 105.575 50.4527 114.211 64.4944 121.614C84.4561 132.14 105.068 139.233 126.532 143.856C119.146 161.192 112.513 178.763 110.38 197.653C110.077 200.357 126.709 194.414 127.259 189.517C128.967 174.409 133.536 160.192 139.061 146.268C145.271 147.323 151.549 148.194 157.911 148.896C175.72 150.865 193.472 153.404 209.377 162.184C224.283 170.416 236.344 182.912 244.666 197.7C246.489 200.938 263.362 191.406 261.452 188.011Z" fill="url(#paint0_linear_4_116)"/>
<defs>
<linearGradient id="paint0_linear_4_116" x1="130.801" y1="198.361" x2="130.801" y2="4.57764e-05" gradientUnits="userSpaceOnUse">
<stop stop-color="#F5E37E"/>
<stop offset="1" stop-color="#F6B847"/>
</linearGradient>
</defs>
</svg>
