<svg width="226" height="226" viewBox="0 0 226 226" fill="none" xmlns="http://www.w3.org/2000/svg">
<path d="M120.203 178.368C99.9961 186.631 79.1735 193.543 58.3727 200.387C55.4582 190.406 52.16 180.431 48.8533 170.432C51.8253 169.978 54.1719 169.399 54.9781 168.826C90.1881 143.788 125.555 118.811 162.977 97.2314C159.087 101.3 154.718 104.916 152.02 107.493C142.212 116.893 131.662 125.489 121.064 133.965C99.8754 150.907 78.4402 167.57 61.2858 188.794C58.6453 192.059 68.9375 192.55 69.8021 192.582C75.4688 192.79 82.1343 192.259 87.2241 189.542C112.014 176.297 137.382 164.324 163.291 153.566C150.573 164.108 135.635 172.054 120.203 178.368ZM49.8195 16.8629C51.2584 15.0957 53.0831 13.5747 54.7433 12.0091C55.0526 12.252 55.3493 12.5217 55.6586 12.7646C57.1877 15.9582 61.2857 18.9248 63.2127 22.2075C64.885 25.11 66.2728 28.2372 67.4601 31.368C69.0509 35.5678 70.3155 39.9075 71.3661 44.3421C69.6034 44.5241 68.2922 44.7226 67.9563 44.7929C55.7307 47.3579 43.8313 50.858 32.2415 55.2525C32.3335 54.8071 32.3942 54.3796 32.504 53.91C35.4542 40.4423 41.0468 27.5965 49.8195 16.8629ZM82.5158 121.108C87.96 121.547 96.134 120.043 100.989 118.415C91.8687 124.327 82.8386 130.379 73.8574 136.543C76.7418 131.399 79.6251 126.265 82.5158 121.108ZM37.7779 126.265C44.4125 123.191 51.0457 120.114 57.6827 117.036C52.174 126.852 46.6665 136.666 41.1629 146.479C39.2032 140.041 37.3697 133.584 35.7651 127.104C36.4486 126.849 37.1195 126.571 37.7779 126.265ZM68.7019 98.7578C63.3556 101.231 58.0092 103.704 52.6531 106.205C57.7366 99.0482 62.8229 91.8928 67.9118 84.7387C70.4406 81.1706 72.9736 77.6698 75.3974 74.1175C75.8798 81.8358 76.0709 89.6126 76.2561 97.2564C72.513 97.7788 69.4766 98.405 68.7019 98.7578ZM30.1814 68.8775C30.8366 68.5989 31.4633 68.3393 32.0803 68.0102C40.6397 63.6259 49.3952 59.9202 58.3717 56.8392C53.43 68.2643 45.4562 78.2328 38.2362 88.3925C35.6993 91.9568 33.1473 95.5466 30.598 99.1376C29.4711 89.1298 29.2152 79.0425 30.1814 68.8775ZM140.834 85.0743C152.796 75.3501 165.2 64.1392 179.085 57.1742C187.881 52.7709 192.999 63.643 195.495 74.196C189.079 72.095 175.738 75.5369 172.397 77.1928C149.843 88.3601 128.188 101.025 107.027 114.54C117.995 104.381 129.233 94.5125 140.834 85.0743ZM186.215 127.101C184.559 129.906 182.757 132.578 180.848 135.167C157.959 143.441 135.449 152.642 113.324 162.737C125.46 151.762 138.442 141.637 151.24 131.361C161.809 122.871 172.293 114.179 181.944 104.64C186.152 100.492 193.782 94.2383 197.382 87.4599C197.397 87.7602 197.402 88.0556 197.396 88.3459C197.451 102.052 193.144 115.371 186.215 127.101ZM224.045 100.209C226.968 86.1744 226.693 65.85 215.273 55.2429C203.763 44.5286 182.855 46.1762 168.839 49.8221C152.438 54.1071 139.231 65.2338 126.093 75.4156C118.558 81.2584 111.186 87.2753 103.925 93.4094C103.324 81.922 102.682 70.4157 101.643 58.951C100.277 44.0427 97.4674 28.6517 88.9685 15.9638C79.9718 2.5536 66.0024 -0.58623 50.6577 1.49125C35.6391 3.52639 25.4174 11.7556 17.3224 24.3057C-19.8069 81.8523 15.6248 149.665 32.0347 209.133C31.7078 209.246 31.3768 209.355 31.0485 209.464C25.7751 211.255 27.219 213.5 31.5049 214.831C32.1906 215.043 32.9224 215.204 33.6785 215.328C34.3103 217.804 34.9131 220.272 35.4558 222.716C36.8459 228.945 64.5662 224.823 63.5656 220.33C62.7946 216.861 61.9418 213.392 61.0285 209.927C95.2022 198.692 130.72 188.554 162.572 171.971C191.3 157.012 217.204 133.087 224.045 100.209Z" fill="url(#paint0_linear_4_112)"/>
<defs>
<linearGradient id="paint0_linear_4_112" x1="43.729" y1="227.706" x2="141.594" y2="19.3014" gradientUnits="userSpaceOnUse">
<stop stop-color="#94BFF5"/>
<stop offset="1" stop-color="#7481F7"/>
</linearGradient>
</defs>
</svg>
